<?xml version="1.0" standalone="no"?><!DOCTYPE svg PUBLIC "-//W3C//DTD SVG 1.1//EN" "http://www.w3.org/Graphics/SVG/1.1/DTD/svg11.dtd"><svg height="500" legacy-metrics="false" node-id="1" sillyvg="true" template-height="500" template-width="500" version="1.1" viewBox="0 0 500 500" width="500" xmlns="http://www.w3.org/2000/svg" xmlns:xlink="http://www.w3.org/1999/xlink"><defs node-id="9"></defs><path d="M 355.67 245.46 C 355.67 297.46 313.52 339.61 261.53 339.61 C 209.53 339.61 167.38 297.46 167.38 245.46 C 167.38 193.47 209.53 151.32 261.53 151.32 C 313.52 151.32 355.67 193.47 355.67 245.46 Z" fill="#5a78ec" fill-rule="nonzero" node-id="12" stroke="none" target-height="188.296" target-width="188.296" target-x="167.378" target-y="151.316"></path><path d="M 341.62 238.44 C 341.62 290.43 299.47 332.59 247.47 332.59 C 195.48 332.59 153.33 290.43 153.33 238.44 C 153.33 186.44 195.48 144.29 247.47 144.29 C 299.47 144.29 341.62 186.44 341.62 238.44 Z" fill="#eaf0ff" fill-rule="nonzero" node-id="14" stroke="none" target-height="188.296" target-width="188.296" target-x="153.326" target-y="144.29"></path><path d="M 248.93 239.05 L 248.11 238.47 C 247.55 238.07 247.42 237.29 247.81 236.74 L 288.57 179.11 C 288.96 178.55 289.74 178.42 290.30 178.81 L 291.12 179.39 C 291.68 179.78 291.81 180.56 291.42 181.12 L 250.66 238.75 C 250.27 239.31 249.49 239.44 248.93 239.05 Z" fill="#ff6666" fill-rule="nonzero" node-id="16" stroke="none" target-height="60.654984" target-width="44.02501" target-x="247.6035" target-y="178.6015"></path><path d="M 247.26 237.36 L 246.55 239.53 C 246.33 240.18 245.63 240.53 244.98 240.32 L 202.35 226.28 C 201.70 226.06 201.34 225.36 201.56 224.71 L 202.27 222.54 C 202.49 221.89 203.19 221.53 203.84 221.75 L 246.47 235.79 C 247.12 236.00 247.48 236.71 247.26 237.36 Z" fill="#ffd840" fill-rule="nonzero" node-id="18" stroke="none" target-height="18.684372" target-width="45.820343" target-x="201.49933" target-y="221.6903"></path><path d="M 253.09 238.44 C 253.09 241.54 250.58 244.06 247.47 244.06 C 244.37 244.06 241.85 241.54 241.85 238.44 C 241.85 235.33 244.37 232.82 247.47 232.82 C 250.58 232.82 253.09 235.33 253.09 238.44 Z" fill="#5a78ec" fill-rule="nonzero" node-id="20" stroke="none" target-height="11.242004" target-width="11.242004" target-x="241.853" target-y="232.817"></path></svg>